<svg width="948" height="200" viewBox="0 0 948 200" fill="none" xmlns="http://www.w3.org/2000/svg">
<path d="M48.0795 56.632C44.6875 59.992 40.5595 61.672 35.6955 61.672C30.8315 61.672 26.7035 59.992 23.3115 56.632C19.9515 53.24 18.2715 49.096 18.2715 44.2C18.2715 39.304 19.9515 35.176 23.3115 31.816C26.7035 28.424 30.8315 26.728 35.6955 26.728C40.5595 26.728 44.6875 28.424 48.0795 31.816C51.4715 35.176 53.1675 39.304 53.1675 44.2C53.1675 49.096 51.4715 53.24 48.0795 56.632ZM27.9675 52.12C30.0475 54.168 32.6235 55.192 35.6955 55.192C38.7675 55.192 41.3435 54.168 43.4235 52.12C45.5035 50.04 46.5435 47.4 46.5435 44.2C46.5435 41 45.5035 38.36 43.4235 36.28C41.3435 34.2 38.7675 33.16 35.6955 33.16C32.6235 33.16 30.0475 34.2 27.9675 36.28C25.8875 38.36 24.8475 41 24.8475 44.2C24.8475 47.4 25.8875 50.04 27.9675 52.12ZM71.5031 36.328C74.7351 36.328 77.4871 37.56 79.7591 40.024C82.0631 42.456 83.2151 45.448 83.2151 49C83.2151 52.552 82.0631 55.56 79.7591 58.024C77.4871 60.456 74.7351 61.672 71.5031 61.672C68.1431 61.672 65.5511 60.504 63.7271 58.168V70.6H57.5351V37H63.7271V39.832C65.5511 37.496 68.1431 36.328 71.5031 36.328ZM65.5991 53.896C66.8471 55.144 68.4311 55.768 70.3511 55.768C72.2711 55.768 73.8551 55.144 75.1031 53.896C76.3831 52.616 77.0231 50.984 77.0231 49C77.0231 47.016 76.3831 45.4 75.1031 44.152C73.8551 42.872 72.2711 42.232 70.3511 42.232C68.4311 42.232 66.8471 42.872 65.5991 44.152C64.3511 45.4 63.7271 47.016 63.7271 49C63.7271 50.984 64.3511 52.616 65.5991 53.896ZM100.794 42.952H95.3704V52.936C95.3704 53.768 95.5784 54.376 95.9944 54.76C96.4104 55.144 97.0184 55.368 97.8184 55.432C98.6184 55.464 99.6104 55.448 100.794 55.384V61C96.5384 61.48 93.5304 61.08 91.7704 59.8C90.0424 58.52 89.1784 56.232 89.1784 52.936V42.952H85.0024V37H89.1784V32.152L95.3704 30.28V37H100.794V42.952ZM108.232 34.12C107.208 34.12 106.312 33.752 105.544 33.016C104.808 32.248 104.44 31.352 104.44 30.328C104.44 29.304 104.808 28.408 105.544 27.64C106.312 26.872 107.208 26.488 108.232 26.488C109.288 26.488 110.184 26.872 110.92 27.64C111.688 28.408 112.072 29.304 112.072 30.328C112.072 31.352 111.688 32.248 110.92 33.016C110.184 33.752 109.288 34.12 108.232 34.12ZM105.16 61V37H111.352V61H105.16ZM143.564 36.328C146.316 36.328 148.508 37.224 150.14 39.016C151.804 40.808 152.636 43.208 152.636 46.216V61H146.444V46.648C146.444 45.208 146.092 44.088 145.388 43.288C144.684 42.488 143.692 42.088 142.411 42.088C141.004 42.088 139.9 42.552 139.1 43.48C138.332 44.408 137.948 45.752 137.948 47.512V61H131.756V46.648C131.756 45.208 131.404 44.088 130.7 43.288C129.996 42.488 129.004 42.088 127.724 42.088C126.348 42.088 125.244 42.552 124.412 43.48C123.612 44.408 123.212 45.752 123.212 47.512V61H117.02V37H123.212V39.544C124.652 37.4 126.876 36.328 129.884 36.328C132.828 36.328 135.004 37.48 136.412 39.784C138.012 37.48 140.396 36.328 143.564 36.328ZM160.967 34.12C159.943 34.12 159.047 33.752 158.279 33.016C157.543 32.248 157.175 31.352 157.175 30.328C157.175 29.304 157.543 28.408 158.279 27.64C159.047 26.872 159.943 26.488 160.967 26.488C162.023 26.488 162.919 26.872 163.655 27.64C164.423 28.408 164.807 29.304 164.807 30.328C164.807 31.352 164.423 32.248 163.655 33.016C162.919 33.752 162.023 34.12 160.967 34.12ZM157.895 61V37H164.087V61H157.895ZM177.29 55.192H187.946V61H168.986V56.872L179.114 42.808H169.466V37H187.466V41.128L177.29 55.192ZM196.22 51.544C197.052 54.552 199.308 56.056 202.988 56.056C205.356 56.056 207.148 55.256 208.364 53.656L213.356 56.536C210.988 59.96 207.5 61.672 202.892 61.672C198.924 61.672 195.74 60.472 193.34 58.072C190.94 55.672 189.74 52.648 189.74 49C189.74 45.384 190.924 42.376 193.292 39.976C195.66 37.544 198.7 36.328 202.412 36.328C205.932 36.328 208.828 37.544 211.1 39.976C213.404 42.408 214.556 45.416 214.556 49C214.556 49.8 214.476 50.648 214.316 51.544H196.22ZM196.124 46.744H208.364C208.012 45.112 207.276 43.896 206.156 43.096C205.068 42.296 203.82 41.896 202.412 41.896C200.748 41.896 199.372 42.328 198.284 43.192C197.196 44.024 196.476 45.208 196.124 46.744ZM257.759 27.4L246.239 47.896V61H239.663V47.896L228.191 27.4H235.679L242.975 41.416L250.271 27.4H257.759ZM276.358 58.024C273.894 60.456 270.886 61.672 267.334 61.672C263.782 61.672 260.774 60.456 258.31 58.024C255.878 55.56 254.662 52.552 254.662 49C254.662 45.448 255.878 42.456 258.31 40.024C260.774 37.56 263.782 36.328 267.334 36.328C270.886 36.328 273.894 37.56 276.358 40.024C278.822 42.456 280.054 45.448 280.054 49C280.054 52.552 278.822 55.56 276.358 58.024ZM262.678 53.752C263.926 55 265.478 55.624 267.334 55.624C269.19 55.624 270.742 55 271.99 53.752C273.238 52.504 273.862 50.92 273.862 49C273.862 47.08 273.238 45.496 271.99 44.248C270.742 43 269.19 42.376 267.334 42.376C265.478 42.376 263.926 43 262.678 44.248C261.462 45.496 260.854 47.08 260.854 49C260.854 50.92 261.462 52.504 262.678 53.752ZM300.25 37H306.442V61H300.25V58.312C298.746 60.552 296.362 61.672 293.098 61.672C290.474 61.672 288.298 60.792 286.57 59.032C284.874 57.272 284.026 54.84 284.026 51.736V37H290.218V50.968C290.218 52.568 290.65 53.8 291.514 54.664C292.378 55.496 293.53 55.912 294.97 55.912C296.57 55.912 297.85 55.416 298.81 54.424C299.77 53.432 300.25 51.944 300.25 49.96V37ZM318.305 41.128C318.881 39.592 319.825 38.44 321.137 37.672C322.481 36.904 323.969 36.52 325.601 36.52V43.432C323.713 43.208 322.017 43.592 320.513 44.584C319.041 45.576 318.305 47.224 318.305 49.528V61H312.113V37H318.305V41.128ZM369.783 56.632C366.391 59.992 362.263 61.672 357.399 61.672C352.535 61.672 348.407 59.992 345.015 56.632C341.655 53.24 339.975 49.096 339.975 44.2C339.975 39.304 341.655 35.176 345.015 31.816C348.407 28.424 352.535 26.728 357.399 26.728C362.263 26.728 366.391 28.424 369.783 31.816C373.175 35.176 374.871 39.304 374.871 44.2C374.871 49.096 373.175 53.24 369.783 56.632ZM349.671 52.12C351.751 54.168 354.327 55.192 357.399 55.192C360.471 55.192 363.047 54.168 365.127 52.12C367.207 50.04 368.247 47.4 368.247 44.2C368.247 41 367.207 38.36 365.127 36.28C363.047 34.2 360.471 33.16 357.399 33.16C354.327 33.16 351.751 34.2 349.671 36.28C347.591 38.36 346.551 41 346.551 44.2C346.551 47.4 347.591 50.04 349.671 52.12ZM392.582 36.328C395.206 36.328 397.366 37.208 399.062 38.968C400.79 40.728 401.654 43.16 401.654 46.264V61H395.462V47.032C395.462 45.432 395.03 44.216 394.166 43.384C393.302 42.52 392.15 42.088 390.71 42.088C389.11 42.088 387.83 42.584 386.87 43.576C385.91 44.568 385.43 46.056 385.43 48.04V61H379.238V37H385.43V39.688C386.934 37.448 389.318 36.328 392.582 36.328ZM406.941 61V25.96H413.133V61H406.941ZM421.873 34.12C420.849 34.12 419.953 33.752 419.185 33.016C418.449 32.248 418.081 31.352 418.081 30.328C418.081 29.304 418.449 28.408 419.185 27.64C419.953 26.872 420.849 26.488 421.873 26.488C422.929 26.488 423.825 26.872 424.561 27.64C425.329 28.408 425.713 29.304 425.713 30.328C425.713 31.352 425.329 32.248 424.561 33.016C423.825 33.752 422.929 34.12 421.873 34.12ZM418.801 61V37H424.993V61H418.801ZM444.004 36.328C446.628 36.328 448.788 37.208 450.484 38.968C452.212 40.728 453.076 43.16 453.076 46.264V61H446.884V47.032C446.884 45.432 446.452 44.216 445.588 43.384C444.724 42.52 443.572 42.088 442.132 42.088C440.532 42.088 439.252 42.584 438.292 43.576C437.332 44.568 436.852 46.056 436.852 48.04V61H430.66V37H436.852V39.688C438.356 37.448 440.74 36.328 444.004 36.328ZM463.595 51.544C464.427 54.552 466.683 56.056 470.363 56.056C472.731 56.056 474.523 55.256 475.739 53.656L480.731 56.536C478.363 59.96 474.875 61.672 470.267 61.672C466.299 61.672 463.115 60.472 460.715 58.072C458.315 55.672 457.115 52.648 457.115 49C457.115 45.384 458.299 42.376 460.667 39.976C463.035 37.544 466.075 36.328 469.787 36.328C473.307 36.328 476.203 37.544 478.475 39.976C480.779 42.408 481.931 45.416 481.931 49C481.931 49.8 481.851 50.648 481.691 51.544H463.595ZM463.499 46.744H475.739C475.387 45.112 474.651 43.896 473.531 43.096C472.443 42.296 471.195 41.896 469.787 41.896C468.123 41.896 466.747 42.328 465.659 43.192C464.571 44.024 463.851 45.208 463.499 46.744ZM505.166 54.664H519.326V61H498.542V27.4H519.086V33.736H505.166V40.888H517.886V47.128H505.166V54.664ZM545.835 61H538.683L533.499 53.704L528.267 61H521.115L529.899 48.76L521.499 37H528.651L533.499 43.768L538.347 37H545.451L537.051 48.712L545.835 61ZM562.894 36.328C566.126 36.328 568.878 37.56 571.15 40.024C573.454 42.456 574.606 45.448 574.606 49C574.606 52.552 573.454 55.56 571.15 58.024C568.878 60.456 566.126 61.672 562.894 61.672C559.534 61.672 556.942 60.504 555.118 58.168V70.6H548.926V37H555.118V39.832C556.942 37.496 559.534 36.328 562.894 36.328ZM556.99 53.896C558.238 55.144 559.822 55.768 561.742 55.768C563.662 55.768 565.246 55.144 566.494 53.896C567.774 52.616 568.414 50.984 568.414 49C568.414 47.016 567.774 45.4 566.494 44.152C565.246 42.872 563.662 42.232 561.742 42.232C559.822 42.232 558.238 42.872 556.99 44.152C555.742 45.4 555.118 47.016 555.118 49C555.118 50.984 555.742 52.616 556.99 53.896ZM584.205 51.544C585.037 54.552 587.293 56.056 590.973 56.056C593.341 56.056 595.133 55.256 596.349 53.656L601.341 56.536C598.973 59.96 595.485 61.672 590.877 61.672C586.909 61.672 583.725 60.472 581.325 58.072C578.925 55.672 577.725 52.648 577.725 49C577.725 45.384 578.909 42.376 581.277 39.976C583.645 37.544 586.685 36.328 590.397 36.328C593.917 36.328 596.813 37.544 599.085 39.976C601.389 42.408 602.541 45.416 602.541 49C602.541 49.8 602.461 50.648 602.301 51.544H584.205ZM584.109 46.744H596.349C595.997 45.112 595.261 43.896 594.141 43.096C593.053 42.296 591.805 41.896 590.397 41.896C588.733 41.896 587.357 42.328 586.269 43.192C585.181 44.024 584.461 45.208 584.109 46.744ZM613.055 41.128C613.631 39.592 614.575 38.44 615.887 37.672C617.231 36.904 618.719 36.52 620.351 36.52V43.432C618.463 43.208 616.767 43.592 615.263 44.584C613.791 45.576 613.055 47.224 613.055 49.528V61H606.863V37H613.055V41.128ZM627.045 34.12C626.021 34.12 625.125 33.752 624.357 33.016C623.621 32.248 623.253 31.352 623.253 30.328C623.253 29.304 623.621 28.408 624.357 27.64C625.125 26.872 626.021 26.488 627.045 26.488C628.101 26.488 628.997 26.872 629.733 27.64C630.501 28.408 630.885 29.304 630.885 30.328C630.885 31.352 630.501 32.248 629.733 33.016C628.997 33.752 628.101 34.12 627.045 34.12ZM623.973 61V37H630.165V61H623.973ZM641.064 51.544C641.896 54.552 644.152 56.056 647.832 56.056C650.2 56.056 651.992 55.256 653.208 53.656L658.2 56.536C655.832 59.96 652.344 61.672 647.736 61.672C643.768 61.672 640.584 60.472 638.184 58.072C635.784 55.672 634.584 52.648 634.584 49C634.584 45.384 635.768 42.376 638.136 39.976C640.504 37.544 643.544 36.328 647.256 36.328C650.776 36.328 653.672 37.544 655.944 39.976C658.248 42.408 659.4 45.416 659.4 49C659.4 49.8 659.32 50.648 659.16 51.544H641.064ZM640.968 46.744H653.208C652.856 45.112 652.12 43.896 651 43.096C649.912 42.296 648.664 41.896 647.256 41.896C645.592 41.896 644.216 42.328 643.128 43.192C642.04 44.024 641.32 45.208 640.968 46.744ZM677.067 36.328C679.691 36.328 681.851 37.208 683.547 38.968C685.275 40.728 686.139 43.16 686.139 46.264V61H679.947V47.032C679.947 45.432 679.515 44.216 678.651 43.384C677.787 42.52 676.635 42.088 675.195 42.088C673.595 42.088 672.315 42.584 671.355 43.576C670.395 44.568 669.915 46.056 669.915 48.04V61H663.723V37H669.915V39.688C671.419 37.448 673.803 36.328 677.067 36.328ZM702.85 61.672C699.234 61.672 696.21 60.456 693.778 58.024C691.378 55.592 690.178 52.584 690.178 49C690.178 45.416 691.378 42.408 693.778 39.976C696.21 37.544 699.234 36.328 702.85 36.328C705.186 36.328 707.314 36.888 709.234 38.008C711.154 39.128 712.61 40.632 713.602 42.52L708.274 45.64C707.794 44.648 707.058 43.864 706.066 43.288C705.106 42.712 704.018 42.424 702.802 42.424C700.946 42.424 699.41 43.048 698.194 44.296C696.978 45.512 696.37 47.08 696.37 49C696.37 50.888 696.978 52.456 698.194 53.704C699.41 54.92 700.946 55.528 702.802 55.528C704.05 55.528 705.154 55.256 706.114 54.712C707.106 54.136 707.842 53.352 708.322 52.36L713.698 55.432C712.642 57.32 711.154 58.84 709.234 59.992C707.314 61.112 705.186 61.672 702.85 61.672ZM721.83 51.544C722.662 54.552 724.918 56.056 728.598 56.056C730.966 56.056 732.758 55.256 733.974 53.656L738.966 56.536C736.598 59.96 733.11 61.672 728.502 61.672C724.534 61.672 721.35 60.472 718.95 58.072C716.55 55.672 715.35 52.648 715.35 49C715.35 45.384 716.534 42.376 718.902 39.976C721.27 37.544 724.31 36.328 728.022 36.328C731.542 36.328 734.438 37.544 736.71 39.976C739.014 42.408 740.166 45.416 740.166 49C740.166 49.8 740.086 50.648 739.926 51.544H721.83ZM721.734 46.744H733.974C733.622 45.112 732.886 43.896 731.766 43.096C730.678 42.296 729.43 41.896 728.022 41.896C726.358 41.896 724.982 42.328 723.894 43.192C722.806 44.024 722.086 45.208 721.734 46.744ZM783.512 37H790.088L782.456 61H776.552L772.136 46.456L767.72 61H761.816L754.184 37H760.76L764.84 51.736L769.208 37H775.064L779.432 51.784L783.512 37ZM796.498 34.12C795.474 34.12 794.578 33.752 793.81 33.016C793.074 32.248 792.706 31.352 792.706 30.328C792.706 29.304 793.074 28.408 793.81 27.64C794.578 26.872 795.474 26.488 796.498 26.488C797.554 26.488 798.45 26.872 799.186 27.64C799.954 28.408 800.338 29.304 800.338 30.328C800.338 31.352 799.954 32.248 799.186 33.016C798.45 33.752 797.554 34.12 796.498 34.12ZM793.426 61V37H799.618V61H793.426ZM819.013 42.952H813.589V52.936C813.589 53.768 813.797 54.376 814.213 54.76C814.629 55.144 815.237 55.368 816.037 55.432C816.837 55.464 817.829 55.448 819.013 55.384V61C814.757 61.48 811.749 61.08 809.989 59.8C808.261 58.52 807.397 56.232 807.397 52.936V42.952H803.221V37H807.397V32.152L813.589 30.28V37H819.013V42.952ZM836.723 36.328C839.347 36.328 841.507 37.208 843.203 38.968C844.931 40.728 845.795 43.16 845.795 46.264V61H839.603V47.032C839.603 45.432 839.171 44.216 838.307 43.384C837.443 42.52 836.291 42.088 834.851 42.088C833.251 42.088 831.971 42.584 831.011 43.576C830.051 44.568 829.571 46.056 829.571 48.04V61H823.379V27.4H829.571V39.688C831.075 37.448 833.459 36.328 836.723 36.328ZM891.642 56.632C888.25 59.992 884.122 61.672 879.258 61.672C874.394 61.672 870.266 59.992 866.874 56.632C863.514 53.24 861.834 49.096 861.834 44.2C861.834 39.304 863.514 35.176 866.874 31.816C870.266 28.424 874.394 26.728 879.258 26.728C884.122 26.728 888.25 28.424 891.642 31.816C895.034 35.176 896.73 39.304 896.73 44.2C896.73 49.096 895.034 53.24 891.642 56.632ZM871.53 52.12C873.61 54.168 876.186 55.192 879.258 55.192C882.33 55.192 884.906 54.168 886.986 52.12C889.066 50.04 890.106 47.4 890.106 44.2C890.106 41 889.066 38.36 886.986 36.28C884.906 34.2 882.33 33.16 879.258 33.16C876.186 33.16 873.61 34.2 871.53 36.28C869.45 38.36 868.41 41 868.41 44.2C868.41 47.4 869.45 50.04 871.53 52.12ZM917.172 37H923.364V61H917.172V58.312C915.668 60.552 913.284 61.672 910.02 61.672C907.396 61.672 905.22 60.792 903.492 59.032C901.796 57.272 900.948 54.84 900.948 51.736V37H907.14V50.968C907.14 52.568 907.572 53.8 908.436 54.664C909.3 55.496 910.452 55.912 911.892 55.912C913.492 55.912 914.772 55.416 915.732 54.424C916.692 53.432 917.172 51.944 917.172 49.96V37ZM935.227 41.128C935.803 39.592 936.747 38.44 938.059 37.672C939.403 36.904 940.891 36.52 942.523 36.52V43.432C940.635 43.208 938.939 43.592 937.435 44.584C935.963 45.576 935.227 47.224 935.227 49.528V61H929.035V37H935.227V41.128ZM111.626 157L109.61 150.952H96.2183L94.2023 157H87.0503L98.8103 123.4H107.018L118.826 157H111.626ZM98.3303 144.76H107.546L102.938 131.032L98.3303 144.76ZM139.337 123.4H145.529V157H139.337V154.168C137.513 156.504 134.921 157.672 131.561 157.672C128.329 157.672 125.561 156.456 123.257 154.024C120.985 151.56 119.849 148.552 119.849 145C119.849 141.448 120.985 138.456 123.257 136.024C125.561 133.56 128.329 132.328 131.561 132.328C134.921 132.328 137.513 133.496 139.337 135.832V123.4ZM127.913 149.896C129.193 151.144 130.793 151.768 132.713 151.768C134.633 151.768 136.217 151.144 137.465 149.896C138.713 148.616 139.337 146.984 139.337 145C139.337 143.016 138.713 141.4 137.465 140.152C136.217 138.872 134.633 138.232 132.713 138.232C130.793 138.232 129.193 138.872 127.913 140.152C126.665 141.4 126.041 143.016 126.041 145C126.041 146.984 126.665 148.616 127.913 149.896ZM166.983 133H173.799L164.679 157H157.623L148.503 133H155.319L161.127 149.8L166.983 133ZM194.088 133H200.28V157H194.088V154.168C192.232 156.504 189.624 157.672 186.264 157.672C183.064 157.672 180.312 156.456 178.008 154.024C175.736 151.56 174.6 148.552 174.6 145C174.6 141.448 175.736 138.456 178.008 136.024C180.312 133.56 183.064 132.328 186.264 132.328C189.624 132.328 192.232 133.496 194.088 135.832V133ZM182.664 149.896C183.912 151.144 185.496 151.768 187.416 151.768C189.336 151.768 190.92 151.144 192.168 149.896C193.448 148.616 194.088 146.984 194.088 145C194.088 143.016 193.448 141.4 192.168 140.152C190.92 138.872 189.336 138.232 187.416 138.232C185.496 138.232 183.912 138.872 182.664 140.152C181.416 141.4 180.792 143.016 180.792 145C180.792 146.984 181.416 148.616 182.664 149.896ZM219.239 132.328C221.863 132.328 224.023 133.208 225.719 134.968C227.447 136.728 228.311 139.16 228.311 142.264V157H222.119V143.032C222.119 141.432 221.687 140.216 220.823 139.384C219.959 138.52 218.807 138.088 217.367 138.088C215.767 138.088 214.487 138.584 213.527 139.576C212.567 140.568 212.087 142.056 212.087 144.04V157H205.895V133H212.087V135.688C213.591 133.448 215.975 132.328 219.239 132.328ZM245.022 157.672C241.406 157.672 238.382 156.456 235.95 154.024C233.55 151.592 232.35 148.584 232.35 145C232.35 141.416 233.55 138.408 235.95 135.976C238.382 133.544 241.406 132.328 245.022 132.328C247.358 132.328 249.486 132.888 251.406 134.008C253.326 135.128 254.782 136.632 255.774 138.52L250.446 141.64C249.966 140.648 249.23 139.864 248.238 139.288C247.278 138.712 246.19 138.424 244.974 138.424C243.118 138.424 241.582 139.048 240.366 140.296C239.15 141.512 238.542 143.08 238.542 145C238.542 146.888 239.15 148.456 240.366 149.704C241.582 150.92 243.118 151.528 244.974 151.528C246.222 151.528 247.326 151.256 248.286 150.712C249.278 150.136 250.014 149.352 250.494 148.36L255.87 151.432C254.814 153.32 253.326 154.84 251.406 155.992C249.486 157.112 247.358 157.672 245.022 157.672ZM264.002 147.544C264.834 150.552 267.09 152.056 270.77 152.056C273.138 152.056 274.93 151.256 276.146 149.656L281.138 152.536C278.77 155.96 275.282 157.672 270.674 157.672C266.706 157.672 263.522 156.472 261.122 154.072C258.722 151.672 257.521 148.648 257.521 145C257.521 141.384 258.706 138.376 261.074 135.976C263.442 133.544 266.482 132.328 270.194 132.328C273.714 132.328 276.61 133.544 278.882 135.976C281.186 138.408 282.338 141.416 282.338 145C282.338 145.8 282.258 146.648 282.098 147.544H264.002ZM263.906 142.744H276.146C275.794 141.112 275.058 139.896 273.938 139.096C272.85 138.296 271.602 137.896 270.194 137.896C268.53 137.896 267.154 138.328 266.066 139.192C264.978 140.024 264.258 141.208 263.906 142.744ZM304.665 123.4H310.857V157H304.665V154.168C302.841 156.504 300.249 157.672 296.889 157.672C293.657 157.672 290.889 156.456 288.585 154.024C286.313 151.56 285.177 148.552 285.177 145C285.177 141.448 286.313 138.456 288.585 136.024C290.889 133.56 293.657 132.328 296.889 132.328C300.249 132.328 302.841 133.496 304.665 135.832V123.4ZM293.241 149.896C294.521 151.144 296.121 151.768 298.041 151.768C299.961 151.768 301.545 151.144 302.793 149.896C304.041 148.616 304.665 146.984 304.665 145C304.665 143.016 304.041 141.4 302.793 140.152C301.545 138.872 299.961 138.232 298.041 138.232C296.121 138.232 294.521 138.872 293.241 140.152C291.993 141.4 291.369 143.016 291.369 145C291.369 146.984 291.993 148.616 293.241 149.896ZM692.826 157.672C689.498 157.672 686.698 156.936 684.426 155.464C682.154 153.96 680.554 151.928 679.626 149.368L685.29 146.056C686.602 149.48 689.178 151.192 693.018 151.192C694.874 151.192 696.234 150.856 697.098 150.184C697.962 149.512 698.394 148.664 698.394 147.64C698.394 146.456 697.866 145.544 696.81 144.904C695.754 144.232 693.866 143.512 691.146 142.744C689.642 142.296 688.362 141.848 687.306 141.4C686.282 140.952 685.242 140.36 684.186 139.624C683.162 138.856 682.378 137.896 681.834 136.744C681.29 135.592 681.018 134.248 681.018 132.712C681.018 129.672 682.09 127.256 684.234 125.464C686.41 123.64 689.018 122.728 692.058 122.728C694.778 122.728 697.162 123.4 699.21 124.744C701.29 126.056 702.906 127.896 704.058 130.264L698.49 133.48C697.146 130.6 695.002 129.16 692.058 129.16C690.682 129.16 689.594 129.48 688.794 130.12C688.026 130.728 687.642 131.528 687.642 132.52C687.642 133.576 688.074 134.44 688.938 135.112C689.834 135.752 691.53 136.456 694.026 137.224C695.05 137.544 695.818 137.8 696.33 137.992C696.874 138.152 697.594 138.424 698.49 138.808C699.418 139.16 700.122 139.496 700.602 139.816C701.114 140.136 701.69 140.568 702.33 141.112C702.97 141.656 703.45 142.216 703.77 142.792C704.122 143.368 704.41 144.072 704.634 144.904C704.89 145.704 705.018 146.584 705.018 147.544C705.018 150.648 703.882 153.112 701.61 154.936C699.37 156.76 696.442 157.672 692.826 157.672ZM730.155 154.024C727.691 156.456 724.683 157.672 721.131 157.672C717.579 157.672 714.571 156.456 712.107 154.024C709.675 151.56 708.459 148.552 708.459 145C708.459 141.448 709.675 138.456 712.107 136.024C714.571 133.56 717.579 132.328 721.131 132.328C724.683 132.328 727.691 133.56 730.155 136.024C732.619 138.456 733.851 141.448 733.851 145C733.851 148.552 732.619 151.56 730.155 154.024ZM716.475 149.752C717.723 151 719.275 151.624 721.131 151.624C722.987 151.624 724.539 151 725.787 149.752C727.035 148.504 727.659 146.92 727.659 145C727.659 143.08 727.035 141.496 725.787 140.248C724.539 139 722.987 138.376 721.131 138.376C719.275 138.376 717.723 139 716.475 140.248C715.259 141.496 714.651 143.08 714.651 145C714.651 146.92 715.259 148.504 716.475 149.752ZM738.207 157V121.96H744.399V157H738.207ZM765.906 133H772.098V157H765.906V154.312C764.402 156.552 762.018 157.672 758.754 157.672C756.13 157.672 753.954 156.792 752.226 155.032C750.53 153.272 749.682 150.84 749.682 147.736V133H755.874V146.968C755.874 148.568 756.306 149.8 757.17 150.664C758.034 151.496 759.186 151.912 760.626 151.912C762.226 151.912 763.506 151.416 764.466 150.424C765.426 149.432 765.906 147.944 765.906 145.96V133ZM791.498 138.952H786.074V148.936C786.074 149.768 786.282 150.376 786.698 150.76C787.114 151.144 787.722 151.368 788.522 151.432C789.322 151.464 790.314 151.448 791.498 151.384V157C787.242 157.48 784.234 157.08 782.474 155.8C780.746 154.52 779.882 152.232 779.882 148.936V138.952H775.706V133H779.882V128.152L786.074 126.28V133H791.498V138.952ZM798.935 130.12C797.911 130.12 797.015 129.752 796.247 129.016C795.511 128.248 795.143 127.352 795.143 126.328C795.143 125.304 795.511 124.408 796.247 123.64C797.015 122.872 797.911 122.488 798.935 122.488C799.991 122.488 800.887 122.872 801.623 123.64C802.391 124.408 802.775 125.304 802.775 126.328C802.775 127.352 802.391 128.248 801.623 129.016C800.887 129.752 799.991 130.12 798.935 130.12ZM795.863 157V133H802.055V157H795.863ZM828.171 154.024C825.707 156.456 822.699 157.672 819.147 157.672C815.595 157.672 812.587 156.456 810.123 154.024C807.691 151.56 806.475 148.552 806.475 145C806.475 141.448 807.691 138.456 810.123 136.024C812.587 133.56 815.595 132.328 819.147 132.328C822.699 132.328 825.707 133.56 828.171 136.024C830.635 138.456 831.867 141.448 831.867 145C831.867 148.552 830.635 151.56 828.171 154.024ZM814.491 149.752C815.739 151 817.291 151.624 819.147 151.624C821.003 151.624 822.555 151 823.803 149.752C825.051 148.504 825.675 146.92 825.675 145C825.675 143.08 825.051 141.496 823.803 140.248C822.555 139 821.003 138.376 819.147 138.376C817.291 138.376 815.739 139 814.491 140.248C813.275 141.496 812.667 143.08 812.667 145C812.667 146.92 813.275 148.504 814.491 149.752ZM849.567 132.328C852.191 132.328 854.351 133.208 856.047 134.968C857.775 136.728 858.639 139.16 858.639 142.264V157H852.447V143.032C852.447 141.432 852.015 140.216 851.151 139.384C850.287 138.52 849.135 138.088 847.695 138.088C846.095 138.088 844.815 138.584 843.855 139.576C842.895 140.568 842.415 142.056 842.415 144.04V157H836.223V133H842.415V135.688C843.919 133.448 846.303 132.328 849.567 132.328Z" fill="#141414"/>
<path d="M341.336 157.672C337.592 157.672 334.52 156.616 332.12 154.504C329.72 152.392 328.52 149.56 328.52 146.008V123.4H335.096V145.48C335.096 147.24 335.592 148.632 336.584 149.656C337.608 150.68 339.192 151.192 341.336 151.192C343.48 151.192 345.048 150.68 346.04 149.656C347.064 148.632 347.576 147.24 347.576 145.48V123.4H354.2V146.008C354.2 149.56 353 152.392 350.6 154.504C348.2 156.616 345.112 157.672 341.336 157.672ZM378.599 157L371.831 145.336H366.791V157H360.167V123.4H373.607C376.711 123.4 379.351 124.488 381.527 126.664C383.703 128.84 384.791 131.464 384.791 134.536C384.791 136.616 384.199 138.552 383.015 140.344C381.831 142.104 380.263 143.432 378.311 144.328L385.751 157H378.599ZM366.791 129.592V139.528H373.607C374.855 139.528 375.927 139.048 376.823 138.088C377.719 137.096 378.167 135.912 378.167 134.536C378.167 133.16 377.719 131.992 376.823 131.032C375.927 130.072 374.855 129.592 373.607 129.592H366.791ZM396.275 150.664H409.091V157H389.651V123.4H396.275V150.664ZM436.326 157.672C432.998 157.672 430.198 156.936 427.926 155.464C425.654 153.96 424.054 151.928 423.126 149.368L428.79 146.056C430.102 149.48 432.678 151.192 436.518 151.192C438.374 151.192 439.734 150.856 440.598 150.184C441.462 149.512 441.894 148.664 441.894 147.64C441.894 146.456 441.366 145.544 440.31 144.904C439.254 144.232 437.366 143.512 434.646 142.744C433.142 142.296 431.862 141.848 430.806 141.4C429.782 140.952 428.742 140.36 427.686 139.624C426.662 138.856 425.878 137.896 425.334 136.744C424.79 135.592 424.518 134.248 424.518 132.712C424.518 129.672 425.59 127.256 427.734 125.464C429.91 123.64 432.518 122.728 435.558 122.728C438.278 122.728 440.662 123.4 442.71 124.744C444.79 126.056 446.406 127.896 447.558 130.264L441.99 133.48C440.646 130.6 438.502 129.16 435.558 129.16C434.182 129.16 433.094 129.48 432.294 130.12C431.526 130.728 431.142 131.528 431.142 132.52C431.142 133.576 431.574 134.44 432.438 135.112C433.334 135.752 435.03 136.456 437.526 137.224C438.55 137.544 439.318 137.8 439.83 137.992C440.374 138.152 441.094 138.424 441.99 138.808C442.918 139.16 443.622 139.496 444.102 139.816C444.614 140.136 445.19 140.568 445.83 141.112C446.47 141.656 446.95 142.216 447.27 142.792C447.622 143.368 447.91 144.072 448.134 144.904C448.39 145.704 448.518 146.584 448.518 147.544C448.518 150.648 447.382 153.112 445.11 154.936C442.87 156.76 439.942 157.672 436.326 157.672ZM465.895 132.328C468.519 132.328 470.679 133.208 472.375 134.968C474.103 136.728 474.967 139.16 474.967 142.264V157H468.775V143.032C468.775 141.432 468.343 140.216 467.479 139.384C466.615 138.52 465.463 138.088 464.023 138.088C462.423 138.088 461.143 138.584 460.183 139.576C459.223 140.568 458.743 142.056 458.743 144.04V157H452.551V123.4H458.743V135.688C460.247 133.448 462.631 132.328 465.895 132.328ZM500.702 154.024C498.238 156.456 495.23 157.672 491.678 157.672C488.126 157.672 485.118 156.456 482.654 154.024C480.222 151.56 479.006 148.552 479.006 145C479.006 141.448 480.222 138.456 482.654 136.024C485.118 133.56 488.126 132.328 491.678 132.328C495.23 132.328 498.238 133.56 500.702 136.024C503.166 138.456 504.398 141.448 504.398 145C504.398 148.552 503.166 151.56 500.702 154.024ZM487.022 149.752C488.27 151 489.822 151.624 491.678 151.624C493.534 151.624 495.086 151 496.334 149.752C497.582 148.504 498.206 146.92 498.206 145C498.206 143.08 497.582 141.496 496.334 140.248C495.086 139 493.534 138.376 491.678 138.376C489.822 138.376 488.27 139 487.022 140.248C485.806 141.496 485.198 143.08 485.198 145C485.198 146.92 485.806 148.504 487.022 149.752ZM514.946 137.128C515.522 135.592 516.466 134.44 517.778 133.672C519.122 132.904 520.61 132.52 522.242 132.52V139.432C520.354 139.208 518.658 139.592 517.154 140.584C515.682 141.576 514.946 143.224 514.946 145.528V157H508.754V133H514.946V137.128ZM540.248 138.952H534.824V148.936C534.824 149.768 535.032 150.376 535.448 150.76C535.864 151.144 536.472 151.368 537.272 151.432C538.072 151.464 539.064 151.448 540.248 151.384V157C535.992 157.48 532.984 157.08 531.224 155.8C529.496 154.52 528.632 152.232 528.632 148.936V138.952H524.456V133H528.632V128.152L534.824 126.28V133H540.248V138.952ZM549.095 147.544C549.927 150.552 552.183 152.056 555.863 152.056C558.231 152.056 560.023 151.256 561.239 149.656L566.231 152.536C563.863 155.96 560.375 157.672 555.767 157.672C551.799 157.672 548.615 156.472 546.215 154.072C543.815 151.672 542.615 148.648 542.615 145C542.615 141.384 543.799 138.376 546.167 135.976C548.535 133.544 551.575 132.328 555.287 132.328C558.807 132.328 561.703 133.544 563.975 135.976C566.279 138.408 567.431 141.416 567.431 145C567.431 145.8 567.351 146.648 567.191 147.544H549.095ZM548.999 142.744H561.239C560.887 141.112 560.151 139.896 559.031 139.096C557.943 138.296 556.695 137.896 555.287 137.896C553.623 137.896 552.247 138.328 551.159 139.192C550.071 140.024 549.351 141.208 548.999 142.744ZM585.098 132.328C587.722 132.328 589.882 133.208 591.578 134.968C593.306 136.728 594.17 139.16 594.17 142.264V157H587.978V143.032C587.978 141.432 587.546 140.216 586.682 139.384C585.818 138.52 584.666 138.088 583.226 138.088C581.626 138.088 580.346 138.584 579.386 139.576C578.426 140.568 577.946 142.056 577.946 144.04V157H571.754V133H577.946V135.688C579.45 133.448 581.834 132.328 585.098 132.328ZM602.529 130.12C601.505 130.12 600.609 129.752 599.841 129.016C599.105 128.248 598.737 127.352 598.737 126.328C598.737 125.304 599.105 124.408 599.841 123.64C600.609 122.872 601.505 122.488 602.529 122.488C603.585 122.488 604.481 122.872 605.217 123.64C605.985 124.408 606.369 125.304 606.369 126.328C606.369 127.352 605.985 128.248 605.217 129.016C604.481 129.752 603.585 130.12 602.529 130.12ZM599.457 157V133H605.649V157H599.457ZM624.66 132.328C627.284 132.328 629.444 133.208 631.14 134.968C632.868 136.728 633.732 139.16 633.732 142.264V157H627.54V143.032C627.54 141.432 627.108 140.216 626.244 139.384C625.38 138.52 624.228 138.088 622.788 138.088C621.188 138.088 619.908 138.584 618.948 139.576C617.988 140.568 617.508 142.056 617.508 144.04V157H611.316V133H617.508V135.688C619.012 133.448 621.396 132.328 624.66 132.328ZM657.404 133H663.452V155.848C663.452 159.56 662.22 162.392 659.756 164.344C657.324 166.296 654.38 167.272 650.924 167.272C648.332 167.272 646.044 166.776 644.06 165.784C642.108 164.792 640.604 163.336 639.548 161.416L644.828 158.392C646.044 160.632 648.14 161.752 651.116 161.752C653.068 161.752 654.604 161.24 655.724 160.216C656.844 159.192 657.404 157.736 657.404 155.848V153.256C655.58 155.688 653.02 156.904 649.724 156.904C646.332 156.904 643.484 155.72 641.18 153.352C638.908 150.952 637.771 148.04 637.771 144.616C637.771 141.224 638.924 138.328 641.228 135.928C643.532 133.528 646.364 132.328 649.724 132.328C653.02 132.328 655.58 133.544 657.404 135.976V133ZM645.836 149.368C647.116 150.584 648.732 151.192 650.684 151.192C652.636 151.192 654.236 150.584 655.484 149.368C656.764 148.12 657.404 146.536 657.404 144.616C657.404 142.728 656.764 141.176 655.484 139.96C654.236 138.712 652.636 138.088 650.684 138.088C648.732 138.088 647.116 138.712 645.836 139.96C644.588 141.176 643.964 142.728 643.964 144.616C643.964 146.536 644.588 148.12 645.836 149.368Z" fill="#005AE2"/>
<path d="M559.517 167.905C472.101 168.583 414.749 178.483 397 183.348L406.285 182.694L399.321 184.969L407.214 184.685L403.035 186.391L409.071 187.813C449.075 183.453 546.09 173.641 570.63 172.239L552.524 171.887C562.556 170.554 563.666 170.607 563.666 170.607C563.666 170.607 559.517 169.611 559.517 167.905Z" fill="#005AE2"/>
</svg>
